<svg xmlns="http://www.w3.org/2000/svg" viewBox="0 0 800 620"><rect width="800" height="620" fill="#fff"/><path d="M70 510h660" stroke="#062f59" stroke-width="6"/><g fill="#062f59"><circle cx="210" cy="205" r="55"/><path d="M125 490c6-145 37-220 85-220s79 75 85 220z"/><circle cx="400" cy="170" r="65"/><path d="M295 490c7-170 42-255 105-255s98 85 105 255z"/><circle cx="590" cy="215" r="50"/><path d="M515 490c6-135 34-205 75-205s69 70 75 205z"/></g><g fill="#f39a23"><path d="M160 150h100l-12 28h-76z"/><path d="M340 105h120l-15 30H355z"/><path d="M545 165h90l-12 25h-66z"/></g><g stroke="#0a4e8d" stroke-width="7" fill="none"><path d="M75 545h650"/><path d="M110 510v-75h90v75M480 510v-95h110v95"/></g><text x="70" y="575" fill="#062f59" font-family="Arial" font-size="22" font-weight="700" letter-spacing="4">WORKFORCE • MOBILISATION • SUPPORT</text></svg>
